<?xml version="1.0" encoding="UTF-8" standalone="no"?>
<!-- Created with Inkscape (http://www.inkscape.org/) -->

<svg
   width="210.90198mm"
   height="80.222069mm"
   viewBox="0 0 210.90198 80.222069"
   version="1.1"
   id="svg1"
   sodipodi:docname="attila2.svg"
   inkscape:version="1.4.3 (0d15f75, 2025-12-25)"
   xmlns:inkscape="http://www.inkscape.org/namespaces/inkscape"
   xmlns:sodipodi="http://sodipodi.sourceforge.net/DTD/sodipodi-0.dtd"
   xmlns="http://www.w3.org/2000/svg"
   xmlns:svg="http://www.w3.org/2000/svg">
  <sodipodi:namedview
     id="namedview1"
     pagecolor="#ffffff"
     bordercolor="#000000"
     borderopacity="0.25"
     inkscape:showpageshadow="2"
     inkscape:pageopacity="0.0"
     inkscape:pagecheckerboard="0"
     inkscape:deskcolor="#d1d1d1"
     inkscape:document-units="mm"
     inkscape:zoom="1.52"
     inkscape:cx="398.35526"
     inkscape:cy="149.01316"
     inkscape:window-width="1920"
     inkscape:window-height="1009"
     inkscape:window-x="3832"
     inkscape:window-y="-8"
     inkscape:window-maximized="1"
     inkscape:current-layer="layer1" />
  <defs
     id="defs1" />
  <g
     inkscape:label="Réteg 1"
     inkscape:groupmode="layer"
     id="layer1"
     transform="translate(0,-94.708807)">
    <path
       style="fill:#000000;stroke-width:0.473564"
       id="path37"
       d="m 32.541648,110.84243 c -1.055459,-0.41068 -2.089227,-0.84846 -3.166374,-1.23203 -0.372845,-0.13276 0.70216,0.31603 1.049202,0.47811 0.512203,0.23923 1.01887,0.48393 1.528414,0.72578 2.105391,0.99933 4.216636,1.98809 6.351923,2.9576 4.080136,1.80141 8.326392,3.42542 12.579266,5.0263 2.699372,1.01609 5.486372,1.92973 8.220586,2.90142 4.692174,1.73577 -0.693137,-0.31175 -1.064395,-0.43679 -0.369484,-0.12448 0.921388,0.36483 0.777712,0.51779 -0.07162,0.0763 -0.258326,0.0426 -0.384225,0.0713 -0.341054,0.0776 -0.677201,0.16504 -1.015795,0.24757 -0.695276,0.16552 -1.387468,0.33719 -2.085825,0.49656 -3.218744,0.73454 -6.442515,1.42794 -9.596804,2.28985 -3.461697,0.94591 -4.111828,1.19912 -7.498523,2.29194 -5.157796,1.72187 -10.156278,3.65103 -15.006703,5.74453 -0.245345,0.12522 -0.560813,0.20407 -0.736034,0.37552 -0.106201,0.10393 -0.19537,0.315 -0.03536,0.3793 1.627767,0.65427 3.32936,1.24559 5.116752,1.6631 0.438778,0.10246 0.916666,-0.0967 1.374617,-0.1468 2.904368,-0.31728 0.862621,-0.11324 4.120115,-0.41755 5.325761,-0.37843 10.747989,-0.0995 16.007609,0.55828 1.048113,0.13113 2.083606,0.3054 3.125406,0.4581 3.916412,0.74408 7.889028,1.52397 11.534866,2.77614 -0.799109,-0.47982 1.207963,0.46799 0.917787,0.3375 -1.534518,-0.69005 -3.004708,-1.45102 -4.598662,-2.07522 -0.338989,-0.13276 -3.284134,0.33172 -3.444506,0.35446 -0.738192,0.13394 -1.4861,0.24497 -2.214573,0.40169 -1.805378,0.38839 -5.080154,1.24411 -6.732336,1.70666 -2.671865,0.74805 -5.474316,1.60173 -8.043973,2.49866 -1.346261,0.46991 -2.656403,0.98648 -3.984605,1.47973 -6.302575,2.36929 -11.946561,5.41495 -17.157941,8.7784 -1.614466,1.10521 -3.287531,2.18639 -4.500632,3.51991 -0.18627,0.23369 -0.306231,0.48136 -0.320942,0.74636 0.06137,0.02 -0.08386,0.0964 -0.03305,0.11251 5.435629,1.72628 5.304562,1.74329 2.700269,0.61144 0,0 -0.115454,-0.047 -0.115454,-0.047 v 0 c -0.540812,-0.20232 -2.173169,-0.79639 -1.622439,-0.60695 0.978975,0.33678 5.196954,0.73041 3.983472,1.51224 -0.20367,-0.0909 -0.0056,-0.39109 0.03981,-0.51267 0.964053,-1.37098 2.654111,-2.42534 4.053745,-3.58244 4.987939,-3.46266 10.465478,-6.50116 16.710402,-8.86652 1.323229,-0.48927 2.62865,-1.00165 3.969691,-1.4678 5.47716,-1.90388 11.267795,-3.49945 17.297489,-4.35813 2.439439,-0.23191 1.008872,-0.12773 2.941737,-0.21825 0.252077,-0.0118 0.926376,0.086 0.755631,-0.0409 -2.117185,-1.57555 -2.631879,-1.88641 -4.598959,-2.45282 -3.604084,-1.03481 -7.354474,-1.83714 -11.148255,-2.4756 -1.038882,-0.1434 -2.071692,-0.30898 -3.116658,-0.43005 -5.310408,-0.6152 -10.775436,-0.85951 -16.141818,-0.52244 -1.429129,0.10807 -2.854711,0.23895 -4.286076,0.33225 -0.479377,0.0312 -1.742693,-0.19061 -1.441467,0.0658 0.881178,0.74985 2.372815,1.04411 3.461967,1.65364 0.108823,0.0609 -0.469761,0.13986 -0.415481,0.0513 0.108325,-0.1768 0.414515,-0.25864 0.621771,-0.38797 1.714683,-0.84865 0.658674,-0.35082 2.814819,-1.28582 3.821743,-1.6573 7.71021,-3.24325 11.804551,-4.57322 1.242951,-0.40123 2.471153,-0.82447 3.728847,-1.20373 5.122585,-1.54474 10.480853,-2.70135 15.908286,-3.62803 0.556932,-0.13409 1.586979,-0.28018 1.927441,-0.71331 0.283686,-0.36088 -0.662797,-0.73706 -0.8598,-0.81843 -4.048497,-1.67221 -4.047212,-1.64769 -7.012859,-2.6893 -1.662082,-0.57722 -3.332601,-1.14314 -4.990265,-1.72623 -1.028076,-0.36165 -2.03176,-0.75596 -3.072756,-1.09995 -0.209564,-0.0692 0.775354,0.35088 0.571964,0.27356 -2.361181,-0.89765 -3.497735,-1.40871 -5.762342,-2.37504 -2.573276,-1.16758 -2.106234,-0.94186 -4.521129,-2.08795 -2.836913,-1.34638 -5.570477,-2.77534 -8.703567,-3.81193 z" />
    <path
       style="fill:#000000;stroke-width:0.316074"
       id="path41"
       d="m 31.875623,152.51913 c -0.126261,-0.0194 -0.251094,-0.0661 -0.378779,-0.0583 -1.287436,0.0788 -3.07199,1.05294 -4.101092,1.71644 -0.357486,0.23049 -0.68674,0.49715 -1.030113,0.74573 -0.230339,0.21398 -0.502273,0.39484 -0.691024,0.64194 -0.761245,0.99653 1.213705,1.46905 1.956631,1.74029 0.260316,0.095 0.551355,-0.0968 0.815148,-0.18297 0.858416,-0.2806 1.464797,-0.63407 2.26703,-1.04354 1.03138,-0.61253 2.081377,-1.24037 2.964494,-2.03978 0.157833,-0.14288 0.290799,-0.30818 0.428543,-0.46823 0.06176,-0.0718 0.250356,-0.17413 0.169346,-0.22648 -0.627493,-0.40553 -1.356372,-0.65267 -2.034556,-0.97901 -0.590006,0.63404 -1.183224,1.29166 -1.613846,2.0348 -0.08211,0.14171 -0.182708,0.28249 -0.21075,0.44154 -0.0183,0.10381 0.05254,0.20454 0.07881,0.30681 0.814756,0.383 1.568445,0.91179 2.444267,1.14896 0.295214,0.08 2.179777,-0.74484 2.192483,-0.75023 1.886461,-0.7998 3.671913,-1.73549 5.468927,-2.69657 3.942076,-2.21185 7.843121,-4.49389 11.642405,-6.91584 -1.855898,-0.24457 1.324266,-0.47619 0.976721,-0.6673 -0.701868,-0.38595 -1.418905,-0.84004 -2.22586,-0.94038 -0.304878,-0.0379 -0.454992,0.38743 -0.685106,0.5784 -0.756552,0.62787 -1.520768,1.2476 -2.281178,1.87139 -1.335095,1.28274 -2.991395,2.34297 -4.081471,3.84128 -0.116149,0.15966 -0.418384,0.38112 -0.274351,0.51946 0.63779,0.61255 1.525085,0.94276 2.287624,1.41415 0.805,-0.17199 1.575211,-0.46904 2.306008,-0.82571 0.206956,-0.10097 0.407294,-0.21395 0.604133,-0.33133 0.08989,-0.0537 0.33901,-0.11977 0.254769,-0.18091 -0.67344,-0.48873 -1.463197,-0.81802 -2.194792,-1.22703 -1.617554,0.77391 -3.27824,1.56769 -4.67389,2.67235 -0.226174,0.17901 -0.427501,0.38384 -0.641252,0.57576 -0.08455,0.15289 -0.24397,0.28676 -0.253663,0.45869 -0.0078,0.13793 0.07643,0.30209 0.20715,0.36624 0.921171,0.45201 1.863296,0.90257 2.870864,1.14413 0.362084,0.0868 0.738501,-0.11202 1.102501,-0.19152 0.664538,-0.1451 2.248843,-0.58616 2.883733,-0.75914 1.17583,-0.30614 2.341639,-0.6461 3.51527,-0.95908 0.06465,-0.0172 0.814018,-0.23241 1.019351,-0.19938 0.05331,0.008 0.07176,0.0758 0.107646,0.11361 -2.024689,-4.64401 -2.490283,-0.95894 -1.889962,-0.58097 0.808051,0.50876 1.640296,0.98916 2.509482,1.40029 0.290214,0.13728 1.07618,0.0285 1.332105,0.008 1.040599,-0.23033 2.93424,-0.76055 3.509698,-1.69505 0.06303,-0.10245 0.05601,-0.23037 0.08402,-0.34555 -0.779125,-0.46324 -1.503255,-1.01975 -2.337376,-1.38972 -0.18338,-0.0814 -0.403017,0.0479 -0.601807,0.0862 -1.026927,0.19721 -1.959914,0.58301 -2.836086,1.11355 -0.07682,0.0868 -0.199529,0.15161 -0.230439,0.26058 -0.0249,0.0877 -0.004,0.21984 0.08242,0.26127 0.833154,0.39994 1.68598,0.78785 2.588613,1.02092 0.270514,0.0699 0.553037,-0.0896 0.82875,-0.13852 0.43752,-0.0777 1.353519,-0.255 1.796002,-0.33995 0.363844,-0.0756 0.901307,-0.20337 1.290462,-0.23137 0.112963,-0.008 0.435213,0.0719 0.339484,0.0152 -2.780432,-1.64689 -1.935968,-1.65268 -2.047445,-0.74719 -0.02483,0.22815 -0.118569,0.49487 0.177971,0.65732 0.899628,0.49279 1.815593,0.98288 2.800506,1.30237 0.316706,0.10279 0.670448,-0.0285 1.002892,-0.0686 1.133011,-0.13656 1.812018,-0.31855 2.952842,-0.56918 3.738705,-0.92126 7.392017,-2.11537 11.073245,-3.21544 1.916365,-0.49051 4.121508,-1.19585 6.123738,-0.68332 0.284246,0.0728 0.546029,0.20762 0.819043,0.31142 -0.494604,-0.25152 -0.949646,-0.58839 -1.483816,-0.75456 -0.215277,-0.0669 0.348011,0.27705 0.487346,0.4446 0.127139,0.15289 0.237977,0.32322 0.303881,0.50687 0.258754,0.72107 -0.104453,1.07425 -0.551369,1.59317 -2.084603,1.15402 -4.486586,1.2151 -6.834584,1.05559 -0.323446,0.11476 -1.13813,-0.26803 -1.492056,-0.25727 -0.05329,0.001 -0.130214,0.0236 -0.139865,0.0726 -0.06461,0.32858 0.45628,0.72591 0.576902,0.85956 0,0 0.15299,0.0889 0.15299,0.0889 v 0 c 0.952888,0.28738 1.884542,0.56192 2.894203,0.61044 2.004002,0.12156 4.095216,0.0294 5.969831,-0.71987 0.353277,-0.14119 0.676863,-0.34018 1.015296,-0.51026 0.400916,-0.46467 0.641343,-0.6027 0.729041,-1.20773 0.257537,-1.77678 -2.507362,-2.6348 -3.570306,-3.20378 -0.277666,-0.0866 -0.546996,-0.2015 -0.832994,-0.25955 -2.057708,-0.41772 -4.156411,0.28778 -6.102177,0.82296 -3.660919,1.14551 -7.309328,2.35349 -11.06825,3.19244 -1.125407,0.21828 -1.88303,0.40727 -3.009264,0.48118 -0.332547,0.0219 -1.143621,-0.2878 -1.000071,-0.006 0.26757,0.52485 1.023224,0.66104 1.515063,1.01643 0.158449,0.11452 -0.840982,-0.31671 -0.325468,-0.47235 0.02182,-0.0848 0.04326,-0.16988 0.0655,-0.25466 0.02163,-0.0825 0.140546,-0.1986 0.06609,-0.24713 -2.260123,-1.47347 -1.916261,-1.29571 -3.856013,-0.8971 -0.393645,0.0773 -1.390139,0.27468 -1.778601,0.34262 -0.26458,0.0463 -0.931732,-0.0913 -0.79614,0.12626 0.321744,0.51636 1.077132,0.65512 1.539782,1.06719 0.0697,0.0621 -0.222106,0.12144 -0.283301,0.0519 -0.05723,-0.065 0.09177,-0.14491 0.137654,-0.21736 0.850237,-0.49754 1.821527,-0.90735 2.838693,-0.97367 0.191617,-0.0124 0.711791,0.16383 0.574823,0.0378 -0.50151,-0.4615 -1.16203,-0.74188 -1.743047,-1.1128 -0.0038,0.0756 0.03077,0.16213 -0.01136,0.22669 -0.175531,0.2689 -0.720318,0.5891 -0.968652,0.71762 -0.765871,0.39638 -1.605481,0.66549 -2.465417,0.80855 -0.239366,0.002 -0.480048,0.0299 -0.718096,0.006 -0.187517,-0.0186 -0.6971,-0.23946 -0.547957,-0.13149 0.546134,0.39539 1.177285,0.67552 1.765924,1.01326 -0.07556,-0.0656 -0.170587,-0.11594 -0.226668,-0.19688 -0.04202,-0.0606 0.0051,-0.1657 -0.05556,-0.21046 -0.680836,-0.50297 -1.418339,-0.93483 -2.127509,-1.40226 -0.374555,0.0386 -0.740565,0.19045 -1.092919,0.30108 -1.134996,0.35631 -2.275136,0.6986 -3.42557,1.00903 -1.076553,0.28099 -1.843468,0.50983 -2.943574,0.68574 -0.374839,0.0599 -1.204257,-0.23273 -1.133934,0.11701 0.110516,0.54968 0.951526,0.6823 1.374164,1.07776 0.160651,0.15031 -1.203232,-0.43075 -0.280806,-0.58117 0.190119,-0.19398 0.360797,-0.40637 0.570351,-0.58193 1.052532,-0.88178 2.769985,-1.80705 4.083164,-2.3009 0.211172,-0.0794 0.435837,-0.12278 0.653755,-0.18418 -0.591535,-0.42091 -1.134486,-0.90952 -1.774605,-1.26272 -0.07963,-0.0439 -0.134915,0.11996 -0.213253,0.16589 -0.649886,0.38093 -1.427269,0.76198 -2.183199,0.90705 -0.207623,0.0399 -0.423452,0.0179 -0.635178,0.0269 0.552305,0.35961 1.018371,0.88042 1.656914,1.07882 0.181826,0.0565 0.03958,-0.36484 0.126133,-0.5248 0.152512,-0.28184 0.364393,-0.5337 0.578731,-0.77777 0.999579,-1.13824 2.234458,-2.07791 3.371079,-3.08747 1.039667,-0.82367 1.326294,-1.07078 2.359776,-1.81923 0.249025,-0.18035 0.88911,-0.25754 0.759231,-0.52599 -1.618741,-3.34577 -1.220414,-1.65095 -1.820608,-1.15435 -0.224586,0.18582 -0.468332,0.35031 -0.702498,0.52547 -3.647354,2.5781 -7.47636,4.92069 -11.482383,6.9845 -1.846649,0.91348 -3.684922,1.84571 -5.631243,2.56533 -0.437148,0.16163 -0.878284,0.31668 -1.329784,0.43897 -0.288357,0.0782 -1.020874,-0.0895 -0.884057,0.16061 0.285109,0.52112 1.019374,0.67888 1.529062,1.01833 -0.0921,-0.0587 -0.251275,-0.0745 -0.276283,-0.17621 -0.06299,-0.25602 0.378982,-0.83838 0.475821,-0.97056 0.36609,-0.49966 0.782796,-0.97972 1.282532,-1.36747 -0.564547,-0.384 -1.085027,-0.83235 -1.693643,-1.15199 -0.07301,-0.0384 -0.02439,0.16001 -0.06996,0.22576 -0.11373,0.16422 -0.254051,0.31205 -0.399718,0.45242 -0.837131,0.80673 -1.817827,1.47411 -2.838116,2.06103 -0.764533,0.36326 -1.465133,0.7555 -2.307905,0.94357 -0.255483,0.057 -0.912187,-0.16385 -0.785986,0.0517 1.81782,3.10514 1.208924,0.73491 1.340323,0.41574 0.108314,-0.26309 0.316196,-0.47998 0.474293,-0.71998 1.201521,-0.88815 3.363645,-2.44595 4.981119,-2.38888 0.131096,0.005 0.250143,0.0741 0.375214,0.11122 z" />
    <path
       style="fill:#000000;stroke-width:0.420497"
       id="path42"
       d="m 100.57178,125.93214 c -1.487161,1.80496 -2.431229,3.83309 -3.564424,5.78178 -0.415454,0.71443 -0.847988,1.4225 -1.271982,2.13375 -3.161228,5.26067 -6.721744,10.36062 -10.213779,15.48465 -0.305029,0.4744 -1.957609,2.89746 -2.088107,3.60335 -0.09977,0.53971 0.149513,1.08453 0.224257,1.62679 0,0 0.758213,0.34319 0.758213,0.34319 v 0 c 0.570993,-0.24934 1.246869,-0.38617 1.712979,-0.74806 0.549556,-0.42666 2.211014,-3.07563 2.446876,-3.43458 3.387047,-5.17896 6.922834,-10.30341 9.964944,-15.61904 2.012603,-3.88656 0.312465,-0.55361 2.054343,-4.09469 0.68588,-1.39432 1.3961,-2.7802 1.85139,-4.23731 z" />
    <path
       style="fill:#000000;stroke-width:0.480536"
       id="path43"
       d="m 82.902236,106.11395 c 2.723898,2.8752 5.17118,5.89243 7.612163,8.89955 5.499879,6.61496 10.701201,13.35832 16.058121,20.03482 3.34846,4.13915 6.56608,8.35614 10.27241,12.33507 2.56183,2.75023 4.58198,4.54826 7.36069,7.13708 0,0 0.12093,0.0385 0.12093,0.0385 v 0 c -1.6903,-2.13251 -3.34791,-4.27899 -5.06951,-6.39809 -1.06474,-1.31061 -2.18263,-2.59793 -3.24612,-3.90908 -2.22349,-2.74127 -4.33186,-5.53174 -6.56487,-8.26896 -5.17321,-6.66276 -10.310383,-13.34263 -15.687921,-19.91894 -1.556336,-1.8844 -2.121343,-2.58249 -3.639387,-4.37261 -1.177899,-1.38901 -2.317677,-2.82493 -3.717081,-4.10509 -0.240417,-0.21992 -0.511186,-0.4212 -0.766774,-0.63179 z" />
    <path
       style="fill:#000000;stroke-width:0.357205"
       id="path44"
       d="m 126.29489,144.29031 c -1.11374,2.11133 -2.13925,4.26338 -2.65544,6.48756 -0.0957,0.4121 -0.14663,0.82851 -0.21993,1.24277 -0.0273,0.45892 -0.19931,1.17531 0.16357,1.63888 0.10208,0.13032 0.2994,0.23063 0.50316,0.27808 0.78868,0.18361 1.59696,0.44261 2.4277,0.40432 0.41822,-0.0193 2.2576,-1.36851 2.3464,-1.42972 2.70743,-2.0102 4.93092,-4.29126 7.28202,-6.49518 -1.13134,-0.19508 1.3543,-0.64337 0.92903,-0.8376 -0.64985,-0.29678 -1.42294,-0.61929 -2.19705,-0.55379 -0.40309,0.0342 -0.29999,0.51943 -0.45362,0.77811 -0.86359,1.45407 -0.60703,1.02345 -1.62406,2.57548 -0.78867,1.40763 -1.58469,2.83821 -1.89318,4.34195 -0.12028,0.58651 -0.23424,1.21157 0.2149,1.75676 0.1315,0.15973 0.38818,0.25197 0.58229,0.37798 1.09016,0.27051 2.12204,0.70484 3.27051,0.81154 0.4202,0.039 0.77076,-0.24708 1.1293,-0.40281 1.45463,-0.63181 2.67419,-1.52534 3.75211,-2.43554 0.38637,-0.17897 0.48288,-0.51736 0.78874,-0.73896 0.0182,-0.0132 0.0957,0.0311 0.0714,0.0236 -0.90019,-0.2797 -1.73468,-0.69576 -2.69979,-0.8403 -0.20186,-0.0302 -0.10915,0.27424 -0.15917,0.41215 -0.0645,0.17795 -0.12288,0.35692 -0.1844,0.53537 -0.11017,0.42853 -0.34903,1.67024 0.33023,1.96181 0.98215,0.42157 1.95504,0.90392 3.07093,1.11577 0.36766,0.0697 0.68967,-0.22423 1.03451,-0.33635 0.38326,-0.17634 0.78579,-0.33428 1.14976,-0.52901 0.93812,-0.50188 2.08206,-1.27099 2.9029,-1.84456 1.44148,-1.00728 2.79105,-2.06783 4.12563,-3.14144 0.89684,-0.76162 1.77716,-1.53442 2.57113,-2.34904 0.30964,-0.3177 0.55477,-0.64925 0.85088,-0.97007 -0.99347,-0.27077 -1.92339,-0.70454 -2.98041,-0.81232 -0.26015,-0.0265 -0.27649,0.30813 -0.40109,0.46748 -0.18045,0.23077 -0.34873,0.46604 -0.5136,0.70226 -0.66804,0.95725 -1.23766,1.93945 -1.80788,2.92556 -0.39868,1.26275 -1.12922,3.02035 -0.093,4.23775 0.17231,0.20242 0.39417,0.40036 0.68525,0.52246 1.19526,0.50138 2.48595,0.88611 3.72893,1.32917 0.43712,-0.0553 0.8844,-0.0808 1.3114,-0.16552 2.11535,-0.4201 3.96269,-1.33699 5.56154,-2.34532 0.1788,-0.12801 0.36569,-0.25089 0.53637,-0.38403 0.12483,-0.0973 0.22277,-0.21014 0.34903,-0.30661 0.0752,-0.0574 0.15738,-0.11254 0.2528,-0.1532 0.0289,-0.0123 0.13151,0.0132 0.10152,0.002 -3.02411,-1.10423 -3.08207,-1.75911 -2.84157,-0.77129 0.18357,1.76782 1.07939,1.87144 4.0322,2.70259 0.26019,0.0733 0.55721,-0.0516 0.83583,-0.0775 1.72973,-0.42287 3.40579,-1.13212 4.46722,-2.18928 0.16397,-0.1633 0.28615,-0.3447 0.42922,-0.51705 0.0708,-0.15836 0.17068,-0.31188 0.21226,-0.47508 0.32066,-1.25919 -2.2032,-1.67107 -3.48048,-2.05198 -0.20813,-0.062 -1.06979,0.48361 -1.1067,0.50469 -0.17931,0.15443 -0.38786,0.29471 -0.53797,0.46324 -0.15641,0.17562 -0.26523,0.36985 -0.37474,0.56154 -0.27653,0.48401 -0.41642,0.9468 0.0608,1.40068 0.10141,0.0964 0.25343,0.16201 0.38012,0.24303 1.7916,0.75905 2.51743,1.32243 4.20506,1.22915 0.33578,-0.0186 0.47347,-0.058 0.76935,0.0636 1.46338,0.68579 -3.08615,-1.125 -2.29021,-0.8771 1.24165,0.38669 2.35549,0.95102 3.59792,1.33656 0.29576,0.0918 0.64255,0.0664 0.96639,0.0798 0.96695,0.0401 1.79476,-0.002 2.76878,-0.0301 4.02657,-0.2397 8.058,-0.40535 12.09953,-0.43813 3.7967,0.0177 7.59477,0.20717 11.34642,0.61026 0.9336,0.12669 1.86151,0.27412 2.77721,0.45254 0.12581,0.0245 0.7231,0.20242 0.89728,0.14188 -0.15869,-0.11065 -0.31742,-0.22134 -0.47614,-0.33201 0,0 -1.43471,-0.73369 -1.43471,-0.73369 v 0 c -0.24814,-0.11734 -0.4963,-0.2347 -0.74444,-0.35204 -1.20195,-0.40623 -2.6024,-0.45448 -3.89068,-0.65595 -3.7204,-0.33866 -7.47632,-0.5076 -11.2294,-0.50357 -4.04988,0.0534 -8.08831,0.21636 -12.12668,0.42834 -1.03497,0.0112 -1.77527,0.0446 -2.79027,-0.0343 -0.30718,-0.0238 -1.14406,-0.25867 -0.91121,-0.11876 0.70393,0.42296 3.22806,1.29324 2.39069,1.00773 -9.0517,-3.08619 -1.66104,-0.81935 -3.68859,-1.43859 -0.3802,-0.0217 -0.74965,0.0456 -1.13047,0.0229 -1.15336,-0.0689 -1.8218,-0.64814 1.98092,0.97925 -0.15674,-0.0569 -0.33437,-0.0924 -0.4704,-0.17059 -1.08468,-0.62349 -0.0438,-1.60085 0.69699,-2.09376 0.18893,-0.0793 0.36035,-0.18299 0.56676,-0.23786 0.13867,-0.0368 0.56055,0.0326 0.44373,-0.0306 -0.8144,-0.44113 -1.74836,-0.76631 -2.62252,-1.14945 0.0684,0.0735 0.16615,0.13734 0.20487,0.22036 0.0522,0.11188 0.072,0.23276 0.0612,0.35005 -0.013,0.14992 -0.0894,0.29408 -0.13395,0.44114 -0.11783,0.167 -0.21271,0.34269 -0.35364,0.50101 -0.93325,1.04848 -2.55206,1.73321 -4.2382,2.05897 -1.57051,0.009 -1.33661,-0.0917 1.47548,1.03376 0.14568,0.0583 -0.24045,-0.16512 -0.33126,-0.2628 -0.2938,-0.31603 -0.34153,-0.67234 -0.31875,-1.03687 0.007,-1.05677 0.11196,-0.35331 -2.97947,-1.53999 -0.0501,-0.0192 -0.0884,0.0509 -0.12711,0.0802 -0.37114,0.27968 -0.7132,0.57923 -1.10189,0.84837 -1.46103,0.99107 -3.2702,1.97622 -5.32773,2.28319 -0.41139,0.0614 -0.83942,0.0446 -1.25911,0.0668 0.59421,0.29139 1.15799,0.61464 1.78264,0.87415 0.28819,0.11973 -0.56555,-0.26651 -0.7669,-0.45214 -0.23348,-0.21526 -0.41399,-0.46499 -0.51021,-0.7253 -0.40488,-1.09543 0.0894,-2.32658 0.44837,-3.38476 0.17582,-0.37877 0.32546,-0.76379 0.52747,-1.13632 0.4588,-0.84603 1.07791,-1.68359 1.73501,-2.46486 0.12809,-0.1523 0.56531,-0.30981 0.40649,-0.44772 -0.64551,-0.56051 -1.63347,-0.88458 -2.4502,-1.32687 -0.0627,0.33613 -0.43817,0.70818 -0.67206,0.98807 -0.70289,0.84121 -1.50151,1.64046 -2.38306,2.39832 -2.05448,1.76121 -4.31468,3.61077 -7.01347,4.9215 -0.36895,0.17919 -0.77407,0.32018 -1.1611,0.48027 -1.61494,0.3537 -1.42432,0.12064 0.94059,1.09955 0.15819,0.0655 -0.30831,-0.154 -0.39827,-0.26498 -0.37156,-0.45849 -0.14859,-1.04564 -0.0387,-1.52115 0.077,-0.17015 0.15006,-0.34117 0.231,-0.51044 0.0645,-0.13472 0.34745,-0.29866 0.20528,-0.40139 -2.61855,-1.89222 -2.17886,-1.61479 -3.22749,-0.42575 -0.98403,0.9431 -2.02531,1.84274 -3.51894,2.43228 -0.3509,0.13849 -1.17157,0.0578 -1.11282,0.33316 0.0938,0.43945 0.92196,0.62182 1.38292,0.93273 -0.22898,-0.0976 -0.52206,-0.14645 -0.68695,-0.29307 -0.52703,-0.46857 -0.42364,-1.17245 -0.33767,-1.69373 0.24793,-1.50302 1.02799,-2.93904 1.77752,-4.34816 0.79461,-1.53423 0.57273,-1.2511 1.53195,-2.60189 0.18024,-0.2538 0.75744,-0.50042 0.56928,-0.75148 -1.46553,-1.95545 -1.65153,-1.38164 -2.21157,-0.74298 -0.16879,0.19246 -0.34171,0.38316 -0.51256,0.57475 -2.01662,2.33555 -4.31648,4.57104 -6.93071,6.60796 -0.42049,0.27909 -0.81322,0.57944 -1.26144,0.83728 -0.33939,0.19522 -1.0086,0.21863 -1.09352,0.51736 -0.0837,0.29399 0.6637,0.44725 0.73525,0.74274 0.0372,0.15348 -0.47417,-0.0832 -0.60614,-0.20954 -0.40015,-0.3831 -0.27454,-1.27289 -0.27784,-1.62833 0.0739,-0.41063 0.11865,-0.82421 0.22149,-1.23186 0.55618,-2.20388 1.81376,-4.27842 2.89044,-6.37638 z" />
    <path
       style="fill:#000000;stroke-width:0.396976"
       id="path45"
       d="m 121.79859,147.64421 c 4.01268,0.0773 8.02787,0.1165 12.04154,0.18623 2.11491,0.0535 4.22704,0.12617 6.34121,0.18468 1.07731,0.0298 2.15447,0.10381 3.23281,0.0828 0.77107,-0.0151 1.51699,-0.12687 2.27549,-0.1903 0,0 -0.48294,-0.15898 -0.48294,-0.15898 v 0 c -1.42493,-0.15532 -2.83166,-0.34846 -4.27483,-0.46597 -1.15162,-0.0938 -2.32686,-0.11702 -3.49235,-0.16644 -1.83012,-0.0776 -4.64372,-0.16622 -6.49503,-0.22726 -2.55369,-0.0358 -2.89384,-0.0551 -5.34503,-0.0373 -1.68057,0.0122 -3.34886,0.0896 -5.02739,0.1065 -0.29244,0.003 -0.58501,-0.004 -0.87752,-0.006 z" />
  </g>
</svg>
